<svg xmlns="http://www.w3.org/2000/svg" viewBox="0 0 40 50"> <path d="M19.9,0 L19.7,0 L0,2.1 L0,38.3 L19.7,50 L39.4,38.3 L39.4,2.1 L19.9,0 Z M36.9,36.8 L19.7,47 L2.5,36.8 L2.5,22 L19.6,32.2 L19.6,34 L7.9,27 L7.9,28.8 L19.7,35.9 L19.7,37.8 L7.9,30.8 L7.9,32.6 L19.7,39.6 L31.6,32.5 L31.6,24.9 L36.9,21.7 L36.9,36.8 L36.9,36.8 Z M36.8,19.8 L32.1,22.6 L29.9,23.9 L19.6,17.8 L19.6,19.6 L28.4,24.9 L28.3,24.9 L28.1,25 L26.8,25.7 L19.5,21.4 L19.5,23.2 L25.3,26.6 L23.9,27.5 L19.6,24.9 L19.6,26.7 L22.5,28.4 L19.6,30.1 L2.6,20 L19.6,9.8 L36.8,19.8 Z M36.9,18 L19.6,7.8 L2.5,18 L2.5,4.4 L19.7,2.6 L36.9,4.4 L36.9,18 Z" id="Shape"  fill-rule="nonzero"></path></svg>
